<?xml version="1.0" standalone="no"?>
<!DOCTYPE svg PUBLIC "-//W3C//DTD SVG 20010904//EN"
 "http://www.w3.org/TR/2001/REC-SVG-20010904/DTD/svg10.dtd">
<svg version="1.0" xmlns="http://www.w3.org/2000/svg"
 width="400.000000pt" height="400.000000pt" viewBox="0 0 400.000000 400.000000"
 preserveAspectRatio="xMidYMid meet">
<metadata>
Created by potrace 1.14, written by Peter Selinger 2001-2017
</metadata>
<g transform="translate(0.000000,400.000000) scale(0.100000,-0.100000)"
fill="#000000" stroke="none">
<path d="M1008 3813 c6 -2 18 -2 25 0 6 3 1 5 -13 5 -14 0 -19 -2 -12 -5z"/>
<path d="M1272 3640 c0 -14 2 -19 5 -12 2 6 2 18 0 25 -3 6 -5 1 -5 -13z"/>
<path d="M1680 3620 c-27 -24 -53 -26 -74 -5 -15 16 -36 20 -36 8 0 -18 -235
-296 -319 -378 -37 -35 -51 -57 -51 -77 0 -15 4 -30 10 -33 14 -8 210 201 343
367 35 43 40 46 73 41 21 -3 45 0 60 7 22 12 27 11 57 -17 17 -16 43 -40 57
-52 14 -13 80 -72 146 -133 l121 -109 5 -77 5 -77 -73 -91 c-40 -50 -118 -139
-174 -197 -109 -115 -109 -113 -15 -91 20 5 187 190 290 322 l56 72 -20 26
c-25 31 -27 61 -7 90 14 19 11 25 -47 81 -80 77 -374 343 -380 343 -2 0 -14
-9 -27 -20z"/>
<path d="M679 3413 l-24 -28 26 23 c14 12 29 19 34 15 4 -5 5 -2 1 5 -9 16 -9
16 -37 -15z"/>
<path d="M624 3368 l-19 -23 23 19 c21 18 27 26 19 26 -2 0 -12 -10 -23 -22z"/>
<path d="M1627 3303 c-18 -18 -6 -106 18 -133 24 -26 72 -26 101 1 13 12 30
19 38 16 22 -9 20 -37 -2 -37 -10 0 -28 -11 -41 -23 -18 -20 -19 -26 -8 -35
14 -12 94 -11 114 1 14 9 15 95 1 122 -26 48 -80 55 -123 15 -13 -12 -25 -16
-34 -11 -18 11 -7 41 15 41 18 0 43 27 44 48 0 17 -105 12 -123 -5z"/>
<path d="M473 3203 c-3 -10 -8 -22 -11 -28 -3 -5 1 -4 8 2 13 12 23 43 14 43
-3 0 -7 -8 -11 -17z"/>
<path d="M870 3199 c0 -5 5 -7 10 -4 6 3 10 8 10 11 0 2 -4 4 -10 4 -5 0 -10
-5 -10 -11z"/>
<path d="M2257 3118 c-110 -142 -200 -255 -259 -320 -38 -43 -65 -78 -58 -78
6 0 62 12 126 26 108 24 118 25 159 11 30 -11 42 -12 39 -4 -2 7 12 30 31 52
23 27 35 50 35 71 0 52 -30 258 -39 267 -5 5 -19 -5 -34 -25z"/>
<path d="M399 3123 c-13 -16 -12 -17 4 -4 9 7 17 15 17 17 0 8 -8 3 -21 -13z"/>
<path d="M665 3050 c-10 -11 -14 -20 -9 -20 5 0 17 9 27 20 9 11 13 20 8 20
-4 0 -16 -9 -26 -20z"/>
<path d="M1371 2992 c41 -38 117 -107 169 -155 l95 -86 3 35 c2 19 -4 59 -13
90 -32 110 -136 184 -260 184 l-67 0 73 -68z"/>
<path d="M620 3020 c-9 -6 -10 -10 -3 -10 6 0 15 5 18 10 8 12 4 12 -15 0z"/>
<path d="M903 2917 c-11 -6 -72 -51 -135 -98 -62 -47 -159 -116 -216 -153 -56
-38 -104 -71 -107 -76 -3 -4 2 -13 10 -20 22 -18 18 -57 -7 -75 l-23 -16 50
-46 c410 -381 390 -364 422 -348 36 19 47 19 90 -2 34 -16 37 -16 77 6 38 20
239 159 302 208 16 13 41 32 57 44 21 16 27 29 27 60 l0 41 -52 -44 c-75 -63
-158 -125 -272 -202 -99 -68 -100 -68 -137 -56 -21 7 -54 10 -73 7 -33 -5 -41
-1 -99 51 -79 73 -134 123 -223 203 -49 43 -70 69 -66 79 3 8 6 35 7 59 1 49
-20 30 217 196 88 61 237 183 231 189 -11 10 -57 6 -80 -7z"/>
<path d="M1069 2833 c0 -4 -2 -19 -5 -32 -2 -14 3 -49 11 -79 31 -104 148
-182 273 -182 l57 0 -50 48 c-120 113 -268 247 -276 250 -5 2 -9 0 -10 -5z"/>
<path d="M799 2546 c-8 -6 -15 -32 -17 -58 -2 -41 1 -49 22 -64 26 -16 72 -16
139 1 25 7 28 5 25 -11 -2 -11 -10 -18 -17 -16 -14 3 -71 -29 -71 -40 0 -17
121 -29 141 -14 16 11 18 18 21 77 3 56 -59 82 -132 56 -25 -9 -49 -12 -54 -7
-12 12 2 30 26 30 11 0 31 9 45 20 l25 20 -24 9 c-33 12 -112 11 -129 -3z"/>
<path d="M252 2498 c-6 -7 -13 -24 -16 -38 -3 -14 -12 -56 -22 -95 l-16 -69
53 -50 c30 -27 103 -94 163 -150 59 -56 122 -112 139 -126 17 -14 44 -38 61
-55 86 -84 266 -245 274 -245 4 0 29 13 54 29 25 16 65 40 89 53 87 49 206
124 304 191 55 38 121 82 146 99 25 18 50 41 56 54 10 21 8 22 -36 20 -31 0
-57 5 -75 18 -26 16 -28 22 -24 66 l5 49 -71 -53 c-85 -62 -252 -172 -321
-211 -27 -16 -58 -35 -67 -43 -18 -15 -13 -18 -153 110 -22 20 -51 46 -65 58
-14 12 -47 43 -75 68 -184 173 -360 327 -374 330 -10 2 -23 -3 -29 -10z"/>
<path d="M1725 2370 c3 -5 8 -10 11 -10 2 0 4 5 4 10 0 6 -5 10 -11 10 -5 0
-7 -4 -4 -10z"/>
<path d="M2026 2335 c-9 -26 -7 -32 5 -12 6 10 9 21 6 23 -2 3 -7 -2 -11 -11z"/>
<path d="M1659 2293 c-13 -16 -12 -17 4 -4 9 7 17 15 17 17 0 8 -8 3 -21 -13z"/>
<path d="M1966 2233 c-6 -14 -5 -15 5 -6 7 7 10 15 7 18 -3 3 -9 -2 -12 -12z"/>
<path d="M1606 2232 c-3 -5 1 -9 9 -9 8 0 12 4 9 9 -3 4 -7 8 -9 8 -2 0 -6 -4
-9 -8z"/>
<path d="M1599 2193 c-13 -16 -12 -17 4 -4 9 7 17 15 17 17 0 8 -8 3 -21 -13z"/>
<path d="M1914 2162 c3 -6 -2 -15 -11 -21 -10 -6 -13 -11 -7 -11 20 0 37 27
23 36 -7 4 -9 3 -5 -4z"/>
<path d="M1559 2143 c-13 -16 -12 -17 4 -4 16 13 21 21 13 21 -2 0 -10 -8 -17
-17z"/>
<path d="M2201 2058 l-41 -62 23 -24 c12 -13 34 -32 48 -43 l27 -19 51 51 c58
57 58 52 -13 121 -21 21 -42 38 -46 38 -5 0 -27 -28 -49 -62z"/>
<path d="M1836 2091 c-4 -5 -2 -12 3 -15 5 -4 12 -2 15 3 4 5 2 12 -3 15 -5 4
-12 2 -15 -3z"/>
<path d="M2203 1550 c-40 -16 -56 -54 -49 -117 32 -273 467 -718 765 -782 80
-17 99 -14 133 19 29 29 30 34 26 98 -4 82 -64 220 -99 229 -15 4 -17 8 -8 14
15 9 -37 81 -124 175 l-53 57 -59 -60 c-33 -32 -46 -43 -29 -23 17 19 40 50
50 67 l18 33 -37 38 c-21 21 -34 42 -30 47 5 4 2 5 -5 1 -7 -4 -27 5 -49 23
-21 17 -41 31 -44 31 -4 0 -17 -25 -30 -55 -29 -71 -35 -65 -9 10 11 32 17 62
13 66 -5 3 -32 22 -61 42 -30 19 -50 37 -45 39 4 3 3 4 -4 2 -6 -1 -44 10 -85
26 -74 30 -143 37 -185 20z m457 -434 c0 -2 -8 -10 -17 -17 -16 -13 -17 -12
-4 4 13 16 21 21 21 13z m267 -122 c-3 -3 -12 -4 -19 -1 -8 3 -5 6 6 6 11 1
17 -2 13 -5z"/>
<path d="M3571 1316 c-10 -11 -12 -31 -7 -65 l7 -50 -30 15 c-34 17 -72 11
-87 -14 -6 -9 -17 -41 -23 -69 l-13 -53 -35 43 c-19 23 -39 43 -44 45 -13 5
-58 -32 -58 -48 0 -8 26 -41 58 -74 88 -89 124 -81 159 35 18 62 8 59 104 29
26 -8 35 -6 51 8 16 14 18 26 13 65 -5 43 -3 48 12 42 96 -41 134 -44 156 -13
18 25 21 85 6 108 -13 20 -62 2 -70 -27 l-5 -21 -50 24 c-67 33 -127 41 -144
20z"/>
<path d="M3069 523 c-27 -27 -49 -52 -49 -58 0 -5 23 -31 51 -58 l51 -48 48
43 c26 24 50 49 53 55 5 11 -86 113 -100 113 -3 0 -27 -21 -54 -47z"/>
<path d="M2150 340 c-9 -6 -10 -10 -3 -10 6 0 15 5 18 10 8 12 4 12 -15 0z"/>
</g>
</svg>
